<svg xmlns="http://www.w3.org/2000/svg" viewBox="0 0 64 64" width="64" height="64">
  <!-- Outer Comic Badge with Heavy Ink Border -->
  <rect x="3" y="3" width="58" height="58" rx="14" fill="#ffd23f" stroke="#000000" stroke-width="4.5" stroke-linejoin="round" />

  <!-- Book Pages (Open Comic Book) -->
  <path d="M14 21 C22 17 28 19 32 22 C36 19 42 17 50 21 L50 43 C42 39 36 41 32 44 C28 41 22 39 14 43 Z" 
        fill="#ffffff" stroke="#000000" stroke-width="3.5" stroke-linejoin="round" />
        
  <!-- Center Book Spine -->
  <line x1="32" y1="22" x2="32" y2="44" stroke="#000000" stroke-width="3" stroke-linecap="round" />

  <!-- Dialogue / Comic Panel Lines (Left Page) -->
  <line x1="19" y1="27.5" x2="27" y2="27.5" stroke="#000000" stroke-width="2.5" stroke-linecap="round" />
  <line x1="19" y1="34" x2="27" y2="34" stroke="#000000" stroke-width="2.5" stroke-linecap="round" />

  <!-- Dialogue / Comic Panel Lines (Right Page) -->
  <line x1="37" y1="27.5" x2="45" y2="27.5" stroke="#000000" stroke-width="2.5" stroke-linecap="round" />
  <line x1="37" y1="34" x2="43" y2="34" stroke="#000000" stroke-width="2.5" stroke-linecap="round" />

  <!-- AI Companion Sparkle (Top-Right) -->
  <path d="M48 7 L49.5 12.2 L55 13.5 L49.5 14.8 L48 20 L46.5 14.8 L41 13.5 L46.5 12.2 Z" 
        fill="#ff2e63" stroke="#000000" stroke-width="1.8" stroke-linejoin="round" />
  <circle cx="53" cy="8.5" r="1.5" fill="#08d9d6" stroke="#000000" stroke-width="1" />
</svg>